<?xml version="1.0" encoding="iso-8859-1"?>
<!-- Generator: Adobe Illustrator 19.0.0, SVG Export Plug-In . SVG Version: 6.00 Build 0)  -->
<svg version="1.1" id="Capa_1" xmlns="http://www.w3.org/2000/svg" xmlns:xlink="http://www.w3.org/1999/xlink" x="0px" y="0px"
	 viewBox="0 0 413.696 413.696" style="enable-background:new 0 0 413.696 413.696;" xml:space="preserve">
<g id="XMLID_14_">
	<path id="XMLID_1355_" style="fill:#CDCDD0;" d="M248.49,294.681l8.871,28.856c-9.702,1.955-19.547,2.941-29.419,2.941
		c-0.002,0-0.005,0-0.007,0c-31.401-0.001-62.787-10.239-88.376-28.827c-26.44-19.206-45.492-45.872-55.096-77.114
		c-11.752-38.23-7.883-78.808,10.896-114.257c16.412-30.981,42.459-54.74,74.286-68.083l8.872,28.859
		c4.517-2.029,9.208-3.806,14.064-5.298c4.856-1.492,9.734-2.658,14.611-3.517L189.288,0L174.95,4.407
		C80.079,33.572,26.623,134.482,55.788,229.352c11.529,37.505,34.4,69.516,66.14,92.572c26.573,19.303,58.381,31.086,90.913,33.895
		v27.878h15.032h14.969v-27.85c12.805-1.072,25.498-3.521,37.891-7.33l14.338-4.407l-17.904-58.243
		c-4.518,2.029-9.208,3.805-14.064,5.298C258.246,292.657,253.368,293.823,248.49,294.681z"/>
	<path id="XMLID_1356_" style="fill:#78B9EB;" d="M118.848,126.272l75.928-23.34l8.814,28.675l-7.363,44.11l15.984,26.473
		l21.506-6.611l1.452,72.787l-28.676,8.814l-11.754-38.234l-19.116,5.877l-8.816-28.676l16.728-5.142l-15.984-26.472l-19.117,5.876
		l-11.753-38.234l-27.828,8.555c-2.206,16.602-0.959,33.935,4.285,50.992c17.981,58.493,76.602,93.296,135.352,82.958
		c4.878-0.857,9.756-2.023,14.611-3.517L192.581,61.759c-4.856,1.492-9.547,3.269-14.064,5.298
		C151.435,79.226,130.667,100.63,118.848,126.272z"/>
	<path id="XMLID_1357_" style="fill:#78B9EB;" d="M108.855,160.723c0.396-2.978,0.904-5.933,1.519-8.857
		C109.759,154.79,109.251,157.744,108.855,160.723z"/>
	<path id="XMLID_1358_" style="fill:#78B9EB;" d="M115.419,134.501c1.042-2.783,2.184-5.526,3.426-8.222
		C117.603,128.976,116.46,131.718,115.419,134.501z"/>
	<path id="XMLID_1359_" style="fill:#78B9EB;" d="M110.402,151.735c0.612-2.894,1.33-5.759,2.151-8.589
		C111.732,145.978,111.014,148.842,110.402,151.735z"/>
	<path id="XMLID_1360_" style="fill:#78B9EB;" d="M112.597,142.994c0.826-2.833,1.754-5.631,2.783-8.389
		C114.352,137.363,113.424,140.161,112.597,142.994z"/>
	<path id="XMLID_1361_" style="fill:#5A8BB0;" d="M342.544,141.202c-0.792-2.576-1.671-5.102-2.616-7.584
		c-9.991,12.044-19.055,20.103-19.055,20.103s-0.025-0.022-0.061-0.056l1.129,56.642l-28.676,8.814l-11.754-38.234l-19.116,5.877
		l-8.815-28.676l19.117-5.876l6.101-56.98c-1.836-5.512-2.924-11.071-2.924-16.511c0-3.994,0.526-7.864,1.503-11.551
		c-21.442-9.727-45.8-13.218-70.184-8.928c-4.877,0.858-9.755,2.024-14.611,3.517l70.521,229.405
		c4.856-1.493,9.547-3.269,14.064-5.298C331.578,261.417,360.524,199.694,342.544,141.202z M213.893,97.056l38.234-11.754
		l-10.302,34.552L213.893,97.056z"/>
	<path id="XMLID_1364_" style="fill:#FFFFFF;" d="M118.845,126.279c-1.242,2.695-2.385,5.439-3.426,8.222
		c-0.013,0.035-0.025,0.069-0.038,0.104c-1.029,2.758-1.957,5.556-2.783,8.389c-0.015,0.051-0.029,0.102-0.044,0.152
		c-0.821,2.83-1.539,5.695-2.151,8.589c-0.009,0.043-0.019,0.086-0.028,0.13c-0.615,2.925-1.124,5.88-1.519,8.857
		c-0.001,0.003-0.001,0.005-0.001,0.008l0,0l27.828-8.555l11.753,38.234l19.117-5.876l15.984,26.472l-16.728,5.142l8.816,28.676
		l19.116-5.877l11.754,38.234l28.676-8.814l-1.452-72.787l-21.506,6.611l-15.984-26.473l7.363-44.11l-8.814-28.675l-75.928,23.34
		l0,0C118.847,126.274,118.846,126.276,118.845,126.279z"/>
	<polygon id="XMLID_1365_" style="fill:#FFFFFF;" points="252.128,85.302 213.893,97.056 241.826,119.854 	"/>
	<path id="XMLID_1366_" style="fill:#FFFFFF;" d="M278.797,95.231l-6.101,56.98l-19.117,5.876l8.815,28.676l19.116-5.877
		l11.754,38.234l28.676-8.814l-1.129-56.642C319.331,152.338,288.533,124.465,278.797,95.231z"/>
	<polygon id="XMLID_1367_" style="fill:#A0815C;" points="227.873,383.696 212.841,383.696 127.873,383.696 127.873,413.696 
		227.873,413.696 	"/>
	<polygon id="XMLID_1368_" style="fill:#786145;" points="227.873,413.696 327.873,413.696 327.873,383.696 242.842,383.696 
		227.873,383.696 	"/>
	<path id="XMLID_1369_" style="fill:#FF5023;" d="M278.797,95.231c9.736,29.233,40.534,57.106,42.015,58.434
		c0.036,0.033,0.061,0.056,0.061,0.056v-60c-8.284,0-15-6.716-15-15s6.716-15,15-15v-30c-20.858,0-38.396,14.194-43.497,33.449
		c-0.977,3.687-1.503,7.557-1.503,11.551C275.873,84.16,276.961,89.72,278.797,95.231z"/>
	<path id="XMLID_1370_" style="fill:#BF3C1A;" d="M335.873,78.721c0,8.284-6.716,15-15,15v60c0,0,9.064-8.059,19.055-20.103
		c12.272-14.795,25.945-35.603,25.945-54.897c0-24.853-20.147-45-45-45v30C329.157,63.721,335.873,70.437,335.873,78.721z"/>
	<circle id="XMLID_1371_" style="fill:#FFFFFF;" cx="320.873" cy="78.721" r="15"/>
</g>
<g>
</g>
<g>
</g>
<g>
</g>
<g>
</g>
<g>
</g>
<g>
</g>
<g>
</g>
<g>
</g>
<g>
</g>
<g>
</g>
<g>
</g>
<g>
</g>
<g>
</g>
<g>
</g>
<g>
</g>
</svg>
